REM DIRINDEX 1\2,1\3,1\4,1\5
REM DIRNAME cjc004,folder01,folder02,folder03,folder04
TITLE ""
FILE "1Q_t_0373-0382.mp3" MP3
  TRACK 01 AUDIO
    TITLE "3:cjc004_2020"
    INDEX 01 00:00:00
  TRACK 02 AUDIO
    TITLE "0:"
    INDEX 01 00:01:01
  TRACK 03 AUDIO
    TITLE "4:cjc004_2021"
    INDEX 01 00:01:32
  TRACK 04 AUDIO
    TITLE "0:"
    INDEX 01 00:02:63
  TRACK 05 AUDIO
    TITLE "5:cjc004_2022"
    INDEX 01 00:03:14
  TRACK 06 AUDIO
    TITLE "0:"
    INDEX 01 00:07:31
  TRACK 07 AUDIO
    TITLE "3:cjc004_2023"
    INDEX 01 00:08:15
  TRACK 08 AUDIO
    TITLE "0:"
    INDEX 01 00:09:20
  TRACK 09 AUDIO
    TITLE "4:cjc004_2024"
    INDEX 01 00:09:47
  TRACK 10 AUDIO
    TITLE "0:"
    INDEX 01 00:10:49
  TRACK 11 AUDIO
    TITLE "5:cjc004_2025"
    INDEX 01 00:10:68
  TRACK 12 AUDIO
    TITLE "0:"
    INDEX 01 00:15:01
  TRACK 13 AUDIO
    TITLE "3:cjc004_2026"
    INDEX 01 00:15:52
  TRACK 14 AUDIO
    TITLE "0:"
    INDEX 01 00:16:65
  TRACK 15 AUDIO
    TITLE "4:cjc004_2027"
    INDEX 01 00:17:21
  TRACK 16 AUDIO
    TITLE "0:"
    INDEX 01 00:18:19
  TRACK 17 AUDIO
    TITLE "5:cjc004_2028"
    INDEX 01 00:18:48
  TRACK 18 AUDIO
    TITLE "0:"
    INDEX 01 00:23:26
  TRACK 19 AUDIO
    TITLE "3:cjc004_2029"
    INDEX 01 00:24:12
  TRACK 20 AUDIO
    TITLE "0:"
    INDEX 01 00:25:17
  TRACK 21 AUDIO
    TITLE "4:cjc004_2030"
    INDEX 01 00:25:48
  TRACK 22 AUDIO
    TITLE "0:"
    INDEX 01 00:27:06
  TRACK 23 AUDIO
    TITLE "5:cjc004_2031"
    INDEX 01 00:27:34
  TRACK 24 AUDIO
    TITLE "0:"
    INDEX 01 00:31:10
  TRACK 25 AUDIO
    TITLE "3:cjc004_2032"
    INDEX 01 00:31:65
  TRACK 26 AUDIO
    TITLE "0:"
    INDEX 01 00:33:05
  TRACK 27 AUDIO
    TITLE "4:cjc004_2033"
    INDEX 01 00:33:34
  TRACK 28 AUDIO
    TITLE "0:"
    INDEX 01 00:34:34
  TRACK 29 AUDIO
    TITLE "5:cjc004_2034"
    INDEX 01 00:34:61
  TRACK 30 AUDIO
    TITLE "0:"
    INDEX 01 00:40:46
  TRACK 31 AUDIO
    TITLE "3:cjc004_2035"
    INDEX 01 00:41:32
  TRACK 32 AUDIO
    TITLE "0:"
    INDEX 01 00:42:37
  TRACK 33 AUDIO
    TITLE "4:cjc004_2036"
    INDEX 01 00:42:70
  TRACK 34 AUDIO
    TITLE "0:"
    INDEX 01 00:44:18
  TRACK 35 AUDIO
    TITLE "5:cjc004_2037"
    INDEX 01 00:44:38
  TRACK 36 AUDIO
    TITLE "0:"
    INDEX 01 00:49:02
  TRACK 37 AUDIO
    TITLE "3:cjc004_2038"
    INDEX 01 00:49:59
  TRACK 38 AUDIO
    TITLE "0:"
    INDEX 01 00:50:64
  TRACK 39 AUDIO
    TITLE "4:cjc004_2039"
    INDEX 01 00:51:20
  TRACK 40 AUDIO
    TITLE "0:"
    INDEX 01 00:52:22
  TRACK 41 AUDIO
    TITLE "5:cjc004_2040"
    INDEX 01 00:52:51
  TRACK 42 AUDIO
    TITLE "0:"
    INDEX 01 00:58:56
  TRACK 43 AUDIO
    TITLE "3:cjc004_2041"
    INDEX 01 00:59:41
  TRACK 44 AUDIO
    TITLE "0:"
    INDEX 01 01:00:53
  TRACK 45 AUDIO
    TITLE "4:cjc004_2042"
    INDEX 01 01:01:05
  TRACK 46 AUDIO
    TITLE "0:"
    INDEX 01 01:02:05
  TRACK 47 AUDIO
    TITLE "5:cjc004_2043"
    INDEX 01 01:02:30
  TRACK 48 AUDIO
    TITLE "0:"
    INDEX 01 01:07:53
  TRACK 49 AUDIO
    TITLE "3:cjc004_2044"
    INDEX 01 01:08:33
  TRACK 50 AUDIO
    TITLE "0:"
    INDEX 01 01:09:56
  TRACK 51 AUDIO
    TITLE "4:cjc004_2045"
    INDEX 01 01:10:04
  TRACK 52 AUDIO
    TITLE "0:"
    INDEX 01 01:11:23
  TRACK 53 AUDIO
    TITLE "5:cjc004_2046"
    INDEX 01 01:11:51
  TRACK 54 AUDIO
    TITLE "0:"
    INDEX 01 01:16:38
  TRACK 55 AUDIO
    TITLE "3:cjc004_2047"
    INDEX 01 01:17:20
  TRACK 56 AUDIO
    TITLE "0:"
    INDEX 01 01:18:49
  TRACK 57 AUDIO
    TITLE "4:cjc004_2048"
    INDEX 01 01:19:03
  TRACK 58 AUDIO
    TITLE "0:"
    INDEX 01 01:20:57
  TRACK 59 AUDIO
    TITLE "5:cjc004_2049"
    INDEX 01 01:21:10
  TRACK 60 AUDIO
    TITLE "0:"
    INDEX 01 01:25:55
